<svg xmlns="http://www.w3.org/2000/svg" width="300" height="500" viewBox="0 0 300 500">
    <defs>
      <radialGradient id="bg" cx="50%" cy="42%" r="75%">
        <stop offset="0%" stop-color="#2a1a4a"/>
        <stop offset="55%" stop-color="#160b24"/>
        <stop offset="100%" stop-color="#0a0512"/>
      </radialGradient>
    </defs>
    
    <rect x="0" y="0" width="300" height="500" rx="18" fill="url(#bg)"/>
    <rect x="10" y="10" width="280" height="480" rx="12" fill="none" stroke="#d4af37" stroke-width="2"/>
    <rect x="18" y="18" width="264" height="464" rx="9" fill="none" stroke="rgba(212,175,55,0.3)" stroke-width="1"/>
  
    <circle cx="10" cy="20" r="0.6" fill="#f5e9ff" opacity="0.3"/><circle cx="83" cy="151" r="1.2" fill="#f5e9ff" opacity="0.44999999999999996"/><circle cx="156" cy="282" r="1.7999999999999998" fill="#f5e9ff" opacity="0.6"/><circle cx="229" cy="413" r="0.6" fill="#f5e9ff" opacity="0.75"/><circle cx="22" cy="84" r="1.2" fill="#f5e9ff" opacity="0.3"/><circle cx="95" cy="215" r="1.7999999999999998" fill="#f5e9ff" opacity="0.44999999999999996"/><circle cx="168" cy="346" r="0.6" fill="#f5e9ff" opacity="0.6"/><circle cx="241" cy="477" r="1.2" fill="#f5e9ff" opacity="0.75"/><circle cx="34" cy="148" r="1.7999999999999998" fill="#f5e9ff" opacity="0.3"/><circle cx="107" cy="279" r="0.6" fill="#f5e9ff" opacity="0.44999999999999996"/><circle cx="180" cy="410" r="1.2" fill="#f5e9ff" opacity="0.6"/><circle cx="253" cy="81" r="1.7999999999999998" fill="#f5e9ff" opacity="0.75"/><circle cx="46" cy="212" r="0.6" fill="#f5e9ff" opacity="0.3"/><circle cx="119" cy="343" r="1.2" fill="#f5e9ff" opacity="0.44999999999999996"/><circle cx="192" cy="474" r="1.7999999999999998" fill="#f5e9ff" opacity="0.6"/><circle cx="265" cy="145" r="0.6" fill="#f5e9ff" opacity="0.75"/><circle cx="58" cy="276" r="1.2" fill="#f5e9ff" opacity="0.3"/><circle cx="131" cy="407" r="1.7999999999999998" fill="#f5e9ff" opacity="0.44999999999999996"/><circle cx="204" cy="78" r="0.6" fill="#f5e9ff" opacity="0.6"/><circle cx="277" cy="209" r="1.2" fill="#f5e9ff" opacity="0.75"/><circle cx="70" cy="340" r="1.7999999999999998" fill="#f5e9ff" opacity="0.3"/><circle cx="143" cy="471" r="0.6" fill="#f5e9ff" opacity="0.44999999999999996"/><circle cx="216" cy="142" r="1.2" fill="#f5e9ff" opacity="0.6"/><circle cx="289" cy="273" r="1.7999999999999998" fill="#f5e9ff" opacity="0.75"/><circle cx="82" cy="404" r="0.6" fill="#f5e9ff" opacity="0.3"/><circle cx="155" cy="75" r="1.2" fill="#f5e9ff" opacity="0.44999999999999996"/><circle cx="228" cy="206" r="1.7999999999999998" fill="#f5e9ff" opacity="0.6"/><circle cx="21" cy="337" r="0.6" fill="#f5e9ff" opacity="0.75"/><circle cx="94" cy="468" r="1.2" fill="#f5e9ff" opacity="0.3"/><circle cx="167" cy="139" r="1.7999999999999998" fill="#f5e9ff" opacity="0.44999999999999996"/><circle cx="240" cy="270" r="0.6" fill="#f5e9ff" opacity="0.6"/><circle cx="33" cy="401" r="1.2" fill="#f5e9ff" opacity="0.75"/><circle cx="106" cy="72" r="1.7999999999999998" fill="#f5e9ff" opacity="0.3"/><circle cx="179" cy="203" r="0.6" fill="#f5e9ff" opacity="0.44999999999999996"/><circle cx="252" cy="334" r="1.2" fill="#f5e9ff" opacity="0.6"/><circle cx="45" cy="465" r="1.7999999999999998" fill="#f5e9ff" opacity="0.75"/><circle cx="118" cy="136" r="0.6" fill="#f5e9ff" opacity="0.3"/><circle cx="191" cy="267" r="1.2" fill="#f5e9ff" opacity="0.44999999999999996"/><circle cx="264" cy="398" r="1.7999999999999998" fill="#f5e9ff" opacity="0.6"/><circle cx="57" cy="69" r="0.6" fill="#f5e9ff" opacity="0.75"/>
    <line x1="198.0" y1="250.0" x2="270.0" y2="250.0" stroke="#d4af37" stroke-opacity="0.25" stroke-width="0.8"/><line x1="191.6" y1="274.0" x2="253.9" y2="310.0" stroke="#d4af37" stroke-opacity="0.25" stroke-width="0.8"/><line x1="174.0" y1="291.6" x2="210.0" y2="353.9" stroke="#d4af37" stroke-opacity="0.25" stroke-width="0.8"/><line x1="150.0" y1="298.0" x2="150.0" y2="370.0" stroke="#d4af37" stroke-opacity="0.25" stroke-width="0.8"/><line x1="126.0" y1="291.6" x2="90.0" y2="353.9" stroke="#d4af37" stroke-opacity="0.25" stroke-width="0.8"/><line x1="108.4" y1="274.0" x2="46.1" y2="310.0" stroke="#d4af37" stroke-opacity="0.25" stroke-width="0.8"/><line x1="102.0" y1="250.0" x2="30.0" y2="250.0" stroke="#d4af37" stroke-opacity="0.25" stroke-width="0.8"/><line x1="108.4" y1="226.0" x2="46.1" y2="190.0" stroke="#d4af37" stroke-opacity="0.25" stroke-width="0.8"/><line x1="126.0" y1="208.4" x2="90.0" y2="146.1" stroke="#d4af37" stroke-opacity="0.25" stroke-width="0.8"/><line x1="150.0" y1="202.0" x2="150.0" y2="130.0" stroke="#d4af37" stroke-opacity="0.25" stroke-width="0.8"/><line x1="174.0" y1="208.4" x2="210.0" y2="146.1" stroke="#d4af37" stroke-opacity="0.25" stroke-width="0.8"/><line x1="191.6" y1="226.0" x2="253.9" y2="190.0" stroke="#d4af37" stroke-opacity="0.25" stroke-width="0.8"/>
    <circle cx="150" cy="250" r="120" fill="none" stroke="#d4af37" stroke-opacity="0.5" stroke-width="1.2"/><circle cx="150" cy="250" r="96" fill="none" stroke="#d4af37" stroke-opacity="0.42" stroke-width="1.05"/><circle cx="150" cy="250" r="72" fill="none" stroke="#d4af37" stroke-opacity="0.33999999999999997" stroke-width="0.8999999999999999"/><circle cx="150" cy="250" r="48" fill="none" stroke="#d4af37" stroke-opacity="0.26" stroke-width="0.75"/>
    <circle cx="150" cy="250" r="22" fill="#0a0512" stroke="#d4af37" stroke-width="1.5"/>
    <circle cx="150" cy="250" r="8" fill="#d4af37" opacity="0.85"/>
    <text x="150" y="254" text-anchor="middle" font-size="14" fill="#160b24" font-family="serif">✦</text>
  </svg>